<svg xmlns="http://www.w3.org/2000/svg" viewBox="0 0 32 32" width="32" height="32">
  <defs>
    <linearGradient id="fg" x1="0%" y1="0%" x2="100%" y2="100%">
      <stop offset="0%" stop-color="#E2CFA0"/>
      <stop offset="50%" stop-color="#C8A96E"/>
      <stop offset="100%" stop-color="#A68B4B"/>
    </linearGradient>
  </defs>
  <rect width="32" height="32" rx="6" fill="#0a0a0a"/>
  <g transform="translate(6, 2) scale(0.2)">
    <path d="M30 120 C30 120, 45 85, 55 60 C60 48, 62 35, 58 25 C55 18, 48 12, 40 10 C52 14, 58 22, 58 32 C58 42, 52 55, 45 70 C38 85, 32 100, 30 120Z" fill="url(#fg)" opacity="0.9"/>
    <path d="M58 25 C65 15, 80 5, 100 2 C85 8, 72 18, 62 30 C58 35, 56 42, 55 48Z" fill="url(#fg)" opacity="0.7"/>
    <path d="M40 10 C32 5, 18 2, 5 8 C18 8, 30 12, 38 20 C42 24, 44 30, 45 35Z" fill="url(#fg)" opacity="0.6"/>
    <circle cx="30" cy="125" r="5" fill="url(#fg)" opacity="0.8"/>
  </g>
</svg>
